<?xml version="1.0" encoding="utf-8"?>
<!-- Generator: Adobe Illustrator 23.0.3, SVG Export Plug-In . SVG Version: 6.00 Build 0)  -->
<svg version="1.1" id="Logomark" xmlns="http://www.w3.org/2000/svg" xmlns:xlink="http://www.w3.org/1999/xlink" x="0px" y="0px"
	 viewBox="0 0 235 313" style="enable-background:new 0 0 235 313;" xml:space="preserve">
<style type="text/css">
	.st0{fill:#F901FA;}
</style>
<path class="st0" d="M117.5,243.4 M117.5,243.4 M117.5,243.4 M183.4,68.8l-28.1,45.8l8,4.9l28.1-45.8L183.4,68.8z M104,265.3
	c-12.1-7.4-15.9-23.3-8.5-35.4l9.7-15.8l-8-4.9L87.5,225c-10.2,16.5-5,38.3,11.6,48.4c16.5,10.2,38.3,5,48.4-11.6
	c10.2-16.5,5-38.3-11.6-48.4l-130.3-80l-4.9,8l130.3,80c12.1,7.4,15.9,23.3,8.5,35.4C132,269,116.1,272.8,104,265.3z M153.7,265.6
	c-12.3,20-38.5,26.2-58.4,14c-20-12.3-26.2-38.5-14-58.4l9.7-15.8l-8-4.9l-9.7,15.8c-15,24.4-7.3,56.4,17.1,71.4s56.4,7.3,71.4-17.1
	c15-24.4,7.3-56.4-17.1-71.4l-130.3-80l-4.9,8l130.3,80C159.7,219.4,165.9,245.7,153.7,265.6z M148.4,193
	c27.8,17.1,36.5,53.6,19.5,81.4s-53.6,36.5-81.4,19.5S50,240.2,67.1,212.4l9.7-15.8l-8-4.9L59,207.5c-9.6,15.6-12.5,34-8.3,51.9
	c4.3,17.8,15.2,32.9,30.8,42.5c15.6,9.6,34,12.5,51.9,8.3c17.8-4.3,32.9-15.2,42.5-30.8c9.6-15.6,12.5-34,8.3-51.9
	c-4.3-17.8-15.2-32.9-30.8-42.5L23,104.9l-4.9,8L148.4,193z M87.5,51.2c-10.2,16.5-5,38.3,11.6,48.4l130.3,80l4.9-8L104,91.6
	c-12.1-7.4-15.9-23.3-8.5-35.4C103,44,118.9,40.2,131,47.7l4.9-8C119.4,29.5,97.7,34.7,87.5,51.2z M73.3,42.5
	c-15,24.4-7.3,56.4,17.1,71.4l130.3,80l4.9-8l-130.3-80c-20-12.3-26.2-38.5-14-58.4c12.3-20,38.5-26.2,58.4-14l4.9-8
	C120.3,10.4,88.3,18.1,73.3,42.5z M101.6,2.9C83.7,7.2,68.6,18.1,59,33.7c-9.6,15.6-12.5,34-8.3,51.9c4.3,17.8,15.2,32.9,30.8,42.5
	l130.3,80l4.9-8L86.6,120C58.8,103,50,66.5,67.1,38.7s53.6-36.5,81.4-19.5l4.9-8C137.8,1.6,119.4-1.4,101.6,2.9z M149.1,110.7
	l28.1-45.8l-8-4.9l-28.1,45.8L149.1,110.7z M134.9,102L163,56.2l-8-4.9L126.8,97L134.9,102z"/>
</svg>
