<?xml version="1.0" encoding="UTF-8"?>
<svg width="68px" height="64px" viewBox="0 0 68 64" version="1.1" xmlns="http://www.w3.org/2000/svg" xmlns:xlink="http://www.w3.org/1999/xlink">
    <!-- Generator: Sketch 55 (78076) - https://sketchapp.com -->
    <title>Group 2</title>
    <desc>Created with Sketch.</desc>
    <g id="Page-1" stroke="none" stroke-width="1" fill="none" fill-rule="evenodd">
        <g id="DanceFight-Desktop-1A" transform="translate(-348.000000, -196.000000)" fill="#00FC03">
            <g id="Group-13" transform="translate(380.286788, 224.409576) rotate(-35.000000) translate(-380.286788, -224.409576) translate(346.286788, 196.909576)">
                <g id="Group-2" transform="translate(4.480175, 4.615386)">
                    <polygon id="Fill-1" points="5.51982466 49.384614 53.5198247 49.384614 53.5198247 41.384614 5.51982466 41.384614"></polygon>
                    <path d="M35.0976256,29.0512426 L27.2897352,24.1704265 C26.3545023,23.5858162 25.698411,22.6651103 25.4431781,21.5777794 C25.1876347,20.4907647 25.3630685,19.3673897 25.9374977,18.41475 C26.5119269,17.4624265 27.4161096,16.7943456 28.4836164,16.5341324 C29.5514338,16.2742353 30.6543379,16.4531912 31.5898813,17.0381176 L30.2472694,19.2649485 C29.5222466,18.8115515 28.5699361,19.043625 28.1246758,19.7822132 C27.6794155,20.5204853 27.9073242,21.4901985 28.6326575,21.9435956 L36.4399269,26.8240956 L35.0976256,29.0512426 Z M32.9405662,33.3932941 C32.366137,34.3456176 31.4619543,35.0136985 30.3944475,35.2739118 C29.3269406,35.5338088 28.223726,35.3548529 27.2881826,34.7702426 C26.3526393,34.1853162 25.6968584,33.2646103 25.4413151,32.1775956 C25.1860822,31.0905809 25.3618265,29.9672059 25.9359452,29.0145662 L26.515032,28.0537059 L28.70221,29.4208529 L28.1231233,30.3817132 C27.677863,31.1203015 27.9057717,32.0896985 28.6307945,32.5430956 C29.3561279,32.9964926 30.3081279,32.7644191 30.7536986,32.0261471 C31.1986484,31.2875588 30.9707397,30.3181618 30.2457169,29.8647647 L22.438137,24.9839485 L23.7807489,22.7571176 L31.5883288,27.6373015 C32.5238721,28.2222279 33.179653,29.1429338 33.4351963,30.2302647 C33.6904292,31.3172794 33.5146849,32.4406544 32.9405662,33.3932941 L32.9405662,33.3932941 Z M33.867726,20.8527868 L32.1851142,23.6439926 L29.9979361,22.2768456 L31.6805479,19.4856397 L33.867726,20.8527868 Z M40.3435616,22.3947794 L29.439032,0.0113823529 L29.439032,5.68434189e-14 L29.4365479,0.00600735294 L29.4337534,5.68434189e-14 L29.4337534,0.0113823529 L18.5295342,22.3947794 L-3.7658765e-13,9.52228676 L5.71448402,38.2652574 L29.4337534,38.2652574 L29.439032,38.2652574 L53.1579909,38.2652574 L58.8724749,9.52228676 L40.3435616,22.3947794 Z" id="Fill-10"></path>
                </g>
            </g>
        </g>
    </g>
</svg>