<?xml version="1.0" encoding="UTF-8"?>
<svg width="99px" height="100px" viewBox="0 0 99 100" version="1.1" xmlns="http://www.w3.org/2000/svg" xmlns:xlink="http://www.w3.org/1999/xlink">
    <!-- Generator: Sketch 55 (78076) - https://sketchapp.com -->
    <title>Group 26</title>
    <desc>Created with Sketch.</desc>
    <g id="Page-1" stroke="none" stroke-width="1" fill="none" fill-rule="evenodd">
        <g id="DanceFight-Desktop-1A" transform="translate(-828.000000, -248.000000)" fill="#0601F7">
            <g id="Group-26" transform="translate(828.000000, 248.000000)">
                <polygon id="Fill-1" points="74.3063063 0 70 4.3059944 65.6936937 0 63 2.69378037 67.3063063 6.99977477 63 11.3062196 65.6936937 14 70 9.6940056 74.3063063 14 77 11.3062196 72.6936937 6.99977477 77 2.69378037"></polygon>
                <polygon id="Fill-2" points="32.3062196 0 27.9997748 4.3059944 23.6937804 0 21 2.69378037 25.3064449 6.99977477 21 11.3062196 23.6937804 14 27.9997748 9.6940056 32.3062196 14 35 11.3062196 30.6940056 6.99977477 35 2.69378037"></polygon>
                <polygon id="Fill-3" points="53.306133 0 49 4.3059944 44.693867 0 42 2.69378037 46.306133 6.99977477 42 11.3062196 44.693867 14 49 9.6940056 53.306133 14 56 11.3062196 51.6943175 6.99977477 56 2.69378037"></polygon>
                <polygon id="Fill-4" points="96.3062196 0 91.9997748 4.3059944 87.6933299 0 85 2.69378037 89.3059944 6.99977477 85 11.3062196 87.6933299 14 91.9997748 9.6940056 96.3062196 14 99 11.3062196 94.6940056 6.99977477 99 2.69378037"></polygon>
                <polygon id="Fill-5" points="11.306133 0 6.99954952 4.3059944 2.69386704 0 0 2.69378037 4.30613296 6.99977477 0 11.3062196 2.69386704 14 6.99954952 9.6940056 11.306133 14 14 11.3062196 9.69386704 6.99977477 14 2.69378037"></polygon>
                <polygon id="Fill-6" points="71.0002252 90.3059944 66.6935032 86 64 88.6937804 68.3062715 92.9997748 64 97.3062196 66.6930527 100 66.6939537 100 71.0002252 95.6940056 75.3060463 100 75.3069473 100 78 97.3062196 73.694179 92.9997748 78 88.6937804 75.3064968 86"></polygon>
                <polygon id="Fill-7" points="28 90.3059944 23.6934166 86 21 88.6937804 25.306133 92.9997748 21 97.3062196 23.6929661 100 23.693867 100 28 95.6940056 32.3056825 100 32.3065834 100 35 97.3062196 30.6943175 92.9997748 35 88.6937804 32.306133 86"></polygon>
                <polygon id="Fill-8" points="50.0002252 90.3059944 45.6935032 86 43 88.6937804 47.3062715 92.9997748 43 97.3062196 45.6930527 100 45.6939537 100 50.0002252 95.6940056 54.3060463 100 54.3069473 100 57 97.3062196 52.694179 92.9997748 57 88.6937804 54.3064968 86"></polygon>
                <polygon id="Fill-9" points="92 90.3059944 87.6934166 86 85 88.6937804 89.306133 92.9997748 85 97.3062196 87.6929661 100 87.693867 100 92 95.6940056 96.306133 100 96.3070339 100 99 97.3062196 94.693867 92.9997748 99 88.6937804 96.3065834 86"></polygon>
                <polygon id="Fill-10" points="6.99954952 90.3059944 2.69386704 86 0 88.6937804 4.30568248 92.9997748 0 97.3062196 2.69341656 100 2.69431752 100 6.99954952 95.6940056 11.3056825 100 11.3065834 100 14 97.3062196 9.69341656 92.9997748 14 88.6937804 11.306133 86"></polygon>
                <polygon id="Fill-11" points="65.6937804 35 70.0002252 30.693867 74.3062196 35 77 32.306133 72.6935551 28 77 23.6934166 74.3062196 21 70.0002252 25.3056825 65.6937804 21 63 23.6934166 67.3059944 28 63 32.306133"></polygon>
                <polygon id="Fill-12" points="32.3062196 21 27.9997748 25.306133 23.6942308 21 21 23.6934166 25.3064449 28 21 32.306133 23.6942308 35 27.9997748 30.6943175 32.3062196 35 35 32.306133 30.6940056 28 35 23.6934166"></polygon>
                <polygon id="Fill-13" points="44.6937804 35 48.9997748 30.693867 53.3057692 35 56 32.306133 51.6935551 28 56 23.6934166 53.3057692 21 48.9997748 25.3056825 44.6937804 21 42 23.6934166 46.3059944 28 42 32.306133"></polygon>
                <polygon id="Fill-14" points="92 25.306133 87.6934166 21 85 23.693867 89.306133 28 85 32.3056825 87.6934166 35 92 30.6943175 96.3065834 35 99 32.3056825 94.693867 28 99 23.693867 96.3065834 21"></polygon>
                <polygon id="Fill-15" points="6.99954952 25.306133 2.69386704 21 0 23.693867 4.30568248 28 0 32.3056825 2.69386704 35 6.99954952 30.6943175 11.306133 35 14 32.3056825 9.69341656 28 14 23.693867 11.306133 21"></polygon>
                <polygon id="Fill-16" points="65.6937804 57 70.0002252 52.6935551 74.3062196 57 77 54.3062196 72.6935551 49.9997748 77 45.6933299 74.3062196 43 70.0002252 47.3055439 65.6937804 43 63 45.6933299 67.3059944 49.9997748 63 54.3062196"></polygon>
                <polygon id="Fill-17" points="32.3062196 43 27.9997748 47.3059944 23.6942308 43 21 45.6933299 25.3064449 49.9997748 21 54.3062196 23.6942308 57 27.9997748 52.6940056 32.3062196 57 35 54.3062196 30.6940056 49.9997748 35 45.6933299"></polygon>
                <polygon id="Fill-18" points="54.553675 42.5699653 50.203146 46.9198975 45.8402962 42.5571877 43.1189399 45.2779998 47.4817904 49.6411653 43.1317177 53.991554 45.8610662 56.7208149 50.2111395 52.3708819 54.574445 56.7335924 57.2953449 54.012324 52.9329502 49.6491591 57.282567 45.2987698"></polygon>
                <polygon id="Fill-19" points="92 47.3058559 87.6934166 43 85 45.6936937 89.306133 49.9995495 85 54.3058559 87.6934166 57 92 52.6936937 96.3065834 57 99 54.3058559 94.693867 49.9995495 99 45.6936937 96.3065834 43"></polygon>
                <polygon id="Fill-20" points="6.99954952 47.3058559 2.69386704 43 0 45.6936937 4.30568248 49.9995495 0 54.3058559 2.69386704 57 6.99954952 52.6936937 11.306133 57 14 54.3058559 9.69341656 49.9995495 14 45.6936937 11.306133 43"></polygon>
                <polygon id="Fill-21" points="65.6937804 79 70.0002252 74.6935551 74.3062196 79 77 76.3066701 72.6935551 72.0002252 77 67.6937804 74.3062196 65 70.0002252 69.3059944 65.6937804 65 63 67.6937804 67.3059944 72.0002252 63 76.3066701"></polygon>
                <polygon id="Fill-22" points="32.3062196 65 27.9997748 69.3064449 23.6942308 65 21 67.6937804 25.3064449 72.0002252 21 76.3066701 23.6942308 79 27.9997748 74.6940056 32.3062196 79 35 76.3066701 30.6940056 72.0002252 35 67.6937804"></polygon>
                <polygon id="Fill-23" points="54.3065834 65 50 69.3064449 45.693867 65 43 67.6937804 47.306133 72.0002252 43 76.3066701 45.693867 79 50 74.6940056 54.3065834 79 57 76.3066701 52.6943175 72.0002252 57 67.6937804"></polygon>
                <polygon id="Fill-24" points="92 69.3064449 87.6934166 65 85 67.6942308 89.306133 72.0002252 85 76.3062196 87.6934166 79 92 74.6940056 96.3065834 79 99 76.3062196 94.693867 72.0002252 99 67.6942308 96.3065834 65"></polygon>
                <polygon id="Fill-25" points="6.99954952 69.3064449 2.69386704 65 0 67.6942308 4.30568248 72.0002252 0 76.3062196 2.69386704 79 6.99954952 74.6940056 11.306133 79 14 76.3062196 9.69341656 72.0002252 14 67.6942308 11.306133 65"></polygon>
            </g>
        </g>
    </g>
</svg>