<?xml version="1.0" encoding="UTF-8"?>
<svg width="63px" height="58px" viewBox="0 0 63 58" version="1.1" xmlns="http://www.w3.org/2000/svg" xmlns:xlink="http://www.w3.org/1999/xlink">
    <!-- Generator: Sketch 55 (78076) - https://sketchapp.com -->
    <title>Crown</title>
    <desc>Created with Sketch.</desc>
    <defs>
        <polygon id="path-1" points="0 0.0798838235 7.77423333 0.0798838235 7.77423333 8.14314853 0 8.14314853"></polygon>
        <polygon id="path-3" points="0.218596347 0.0472205882 7.99285662 0.0472205882 7.99285662 8.11040147 0.218596347 8.11040147"></polygon>
    </defs>
    <g id="Page-1" stroke="none" stroke-width="1" fill="none" fill-rule="evenodd">
        <g id="DanceFight-Desktop-1A" transform="translate(-797.000000, -1746.000000)">
            <g id="Crown" transform="translate(827.426915, 1772.980762) rotate(-330.000000) translate(-827.426915, -1772.980762) translate(797.426915, 1748.480762)">
                <polygon id="Fill-1" fill="#F901FA" points="9.37916512 48.0105623 51.3791651 48.0105623 51.3791651 41.0105623 9.37916512 41.0105623"></polygon>
                <g id="Group-12" transform="translate(0.954483, 0.641016)">
                    <g id="Group-4" transform="translate(0.000000, 8.382353)">
                        <mask id="mask-2" fill="white">
                            <use xlink:href="#path-1"></use>
                        </mask>
                        <g id="Clip-3"></g>
                        <path d="M-2.69406393e-05,4.11151618 C-2.69406393e-05,1.88488382 1.74033836,0.0798838235 3.8872379,0.0798838235 C6.03386804,0.0798838235 7.77423333,1.88488382 7.77423333,4.11151618 C7.77423333,6.33814853 6.03386804,8.14314853 3.8872379,8.14314853 C1.74033836,8.14314853 -2.69406393e-05,6.33814853 -2.69406393e-05,4.11151618" id="Fill-2" fill="#F901FA" mask="url(#mask-2)"></path>
                    </g>
                    <g id="Group-7" transform="translate(25.324201, 0.000000)">
                        <mask id="mask-4" fill="white">
                            <use xlink:href="#path-3"></use>
                        </mask>
                        <g id="Clip-6"></g>
                        <path d="M0.218596347,4.07876912 C0.218596347,1.85213676 1.95896164,0.0471367647 4.10586119,0.0471367647 C6.25249132,0.0471367647 7.99285662,1.85213676 7.99285662,4.07876912 C7.99285662,6.30540147 6.25249132,8.11040147 4.10586119,8.11040147 C1.95896164,8.11040147 0.218596347,6.30540147 0.218596347,4.07876912" id="Fill-5" fill="#F901FA" mask="url(#mask-4)"></path>
                    </g>
                    <path d="M51.0806374,12.4938691 C51.0806374,10.2672368 52.8210027,8.46223676 54.9679023,8.46223676 C57.1145324,8.46223676 58.8548977,10.2672368 58.8548977,12.4938691 C58.8548977,14.7205015 57.1145324,16.5255015 54.9679023,16.5255015 C52.8210027,16.5255015 51.0806374,14.7205015 51.0806374,12.4938691" id="Fill-8" fill="#F901FA"></path>
                    <path d="M34.3395626,29.7519044 L27.5650694,25.438625 C26.7536174,24.9219926 26.1843616,24.1083456 25.9629096,23.1474485 C25.7411881,22.1868309 25.8934027,21.1940809 26.3918046,20.3522132 C26.8902064,19.510625 27.6747178,18.9202279 28.600937,18.6902721 C29.5274256,18.4605956 30.4843571,18.6187426 31.2960785,19.1356544 L30.1311653,21.1035515 C29.5021014,20.702875 28.675832,20.9079632 28.2895032,21.5606691 C27.9031744,22.2130956 28.1009187,23.0700515 28.7302521,23.4707279 L35.5042064,27.7837279 L34.3395626,29.7519044 Z M32.4679963,33.5890662 C31.9695945,34.4306544 31.1850831,35.0210515 30.2588639,35.2510074 C29.3326447,35.4806838 28.3754438,35.3225368 27.5637224,34.8059044 C26.7520009,34.2889926 26.1830146,33.4753456 25.9612932,32.5147279 C25.7398411,31.5541103 25.8923251,30.5613603 26.3904575,29.7194926 L26.8929005,28.8703603 L28.7905991,30.0785368 L28.2881562,30.9276691 C27.9018274,31.580375 28.0995717,32.4370515 28.7286356,32.8377279 C29.3579689,33.2384044 30.1839689,33.0333162 30.5705671,32.3808897 C30.9566265,31.7281838 30.7588822,30.8715074 30.1298183,30.4708309 L23.3555945,26.1575515 L24.5205078,24.1896544 L31.2947315,28.502375 C32.106453,29.0192868 32.6754393,29.8329338 32.8971607,30.7938309 C33.1186128,31.7544485 32.9661288,32.7471985 32.4679963,33.5890662 L32.4679963,33.5890662 Z M33.2724438,22.5067574 L31.8125306,24.9734044 L29.914832,23.7652279 L31.3747452,21.2985809 L33.2724438,22.5067574 Z M38.8911836,23.8694485 L29.4299005,4.08877206 L29.4299005,4.07871324 L29.4277452,4.08402206 L29.4253205,4.07871324 L29.4253205,4.08877206 L19.9643068,23.8694485 L3.88721096,12.4937574 L8.84536621,37.8945221 L29.4253205,37.8945221 L29.4299005,37.8945221 L50.0095854,37.8945221 L54.9677406,12.4937574 L38.8911836,23.8694485 Z" id="Fill-10" fill="#F901FA"></path>
                </g>
            </g>
        </g>
    </g>
</svg>