<?xml version="1.0" encoding="UTF-8"?>
<svg width="230px" height="228px" viewBox="0 0 230 228" version="1.1" xmlns="http://www.w3.org/2000/svg" xmlns:xlink="http://www.w3.org/1999/xlink">
    <!-- Generator: Sketch 55 (78076) - https://sketchapp.com -->
    <title>Group 26 Copy</title>
    <desc>Created with Sketch.</desc>
    <g id="Page-1" stroke="none" stroke-width="1" fill="none" fill-rule="evenodd">
        <g id="DanceFight-Desktop-1A" transform="translate(-249.000000, -1871.000000)" fill="#F901FA">
            <g id="Group-26-Copy" transform="translate(246.000000, 1868.000000)">
                <polygon id="Fill-1" transform="translate(17.017672, 116.044113) rotate(-45.000000) translate(-17.017672, -116.044113) " points="24.0685897 104.554363 17.00739 111.615701 9.91216309 104.520783 5.4943411 108.938691 12.5891219 116.034055 5.5279222 123.095392 9.96675239 127.533862 17.0283982 120.472079 24.123179 127.567443 28.5410021 123.149982 21.4457752 116.055064 28.507421 108.99328"></polygon>
                <polygon id="Fill-2" transform="translate(92.431205, 41.870528) rotate(-45.000000) translate(-92.431205, -41.870528) " points="99.4821235 30.3807781 92.4209238 37.4421157 85.3256969 30.3471977 80.9078749 34.7651059 88.0026558 41.86047 80.941456 48.9218076 85.3802862 53.3602775 92.441932 46.2984939 99.5367128 53.393858 103.954536 48.9763969 96.859309 41.8814789 103.920955 34.8196952"></polygon>
                <polygon id="Fill-3" transform="translate(42.746995, 90.436565) rotate(-45.000000) translate(-42.746995, -90.436565) " points="49.7979126 78.946816 42.7362658 86.0081525 35.6410389 78.9132345 31.223664 83.3311438 38.3184449 90.4265079 31.2572451 97.4878455 35.6956282 101.926314 42.757274 94.8645307 49.8525019 101.959896 54.270325 97.5424348 47.1750981 90.4475168 54.2367439 83.3857331"></polygon>
                <polygon id="Fill-4" transform="translate(66.701882, 67.478075) rotate(-45.000000) translate(-66.701882, -67.478075) " points="73.7528002 55.9883253 66.6911534 63.0496618 59.5963736 55.9547448 55.1785516 60.3726531 62.2733325 67.4680172 55.2121327 74.5293548 59.6509629 78.9678247 66.7121616 71.90604 73.8073895 79.0014052 78.2252126 74.5839441 71.1304328 67.4890271 78.1916315 60.4272424"></polygon>
                <polygon id="Fill-5" transform="translate(118.160529, 16.262981) rotate(-45.000000) translate(-118.160529, -16.262981) " points="125.211447 4.77323095 118.150247 11.8345685 111.05502 4.73965051 106.637198 9.15755874 113.731979 16.2529228 106.670779 23.3142604 111.10961 27.7527304 118.171255 20.6909467 125.266036 27.7863108 129.683859 23.3688497 122.588632 16.2739317 129.650278 9.21214805"></polygon>
                <polygon id="Fill-6" transform="translate(195.348498, 140.768641) rotate(-45.000000) translate(-195.348498, -140.768641) " points="195.337771 136.340675 188.24299 129.245311 183.825167 133.662772 190.919948 140.758136 183.858749 147.819921 188.29758 152.258391 195.358778 145.196606 202.454006 152.291972 206.871829 147.87451 199.776601 140.779145 206.838247 133.717362 202.399417 129.278892"></polygon>
                <polygon id="Fill-7" transform="translate(143.002634, 192.866755) rotate(-45.000000) translate(-143.002634, -192.866755) " points="142.99213 188.438789 135.896765 181.343424 131.479303 185.760886 138.574221 192.85625 131.512885 199.918034 135.951354 204.356503 143.013137 197.29472 150.108503 204.390086 154.525965 199.972624 147.431046 192.877259 154.492382 185.815475 150.053913 181.377006"></polygon>
                <polygon id="Fill-8" transform="translate(170.506393, 166.376189) rotate(-45.000000) translate(-170.506393, -166.376189) " points="170.495666 161.948223 163.400885 154.852858 158.983062 159.27032 166.077843 166.365684 159.016644 173.427468 163.455474 177.865938 170.516673 170.804154 177.611901 177.899519 182.029724 173.482058 174.934496 166.386692 181.996142 159.324909 177.557312 154.886439"></polygon>
                <polygon id="Fill-9" transform="translate(219.303385, 116.927132) rotate(-45.000000) translate(-219.303385, -116.927132) " points="219.293105 112.499167 212.197878 105.403802 207.780054 109.821263 214.874835 116.916627 207.813637 123.978412 212.252467 128.416882 219.314113 121.355098 226.408893 128.450462 230.826717 124.033001 223.731489 116.937636 230.793134 109.875852 226.354304 105.437382"></polygon>
                <polygon id="Fill-10" transform="translate(119.047746, 217.591283) rotate(-45.000000) translate(-119.047746, -217.591283) " points="119.037466 213.163318 111.942238 206.067953 107.524415 210.485414 114.619196 217.580778 107.557998 224.642563 111.996828 229.081033 119.058474 222.019249 126.153254 229.114613 130.571077 224.697152 123.475849 217.601787 130.537495 210.540003 126.098665 206.101533"></polygon>
                <polygon id="Fill-11" transform="translate(117.273310, 66.595056) rotate(-45.000000) translate(-117.273310, -66.595056) " points="110.22203 78.0848055 117.283814 71.0230222 124.378732 78.1183866 128.796641 73.7009257 121.701275 66.6055602 128.763059 59.5437769 124.324143 55.1053068 117.262805 62.166644 110.167441 55.0717257 105.749979 59.4891876 112.844897 66.584552 105.783561 73.6463364"></polygon>
                <polygon id="Fill-12" transform="translate(67.589099, 115.161095) rotate(-45.000000) translate(-67.589099, -115.161095) " points="74.6403798 103.671346 67.5785955 110.732682 60.483231 103.637764 56.065768 108.054779 63.1611335 115.150144 56.0993502 122.211928 60.5378203 126.650844 67.5996037 119.589061 74.6949691 126.684426 79.11243 122.266517 72.0175117 115.171152 79.0788479 108.109368"></polygon>
                <polygon id="Fill-13" transform="translate(91.543987, 92.202603) rotate(-45.000000) translate(-91.543987, -92.202603) " points="84.4927069 103.692353 91.5544902 96.6305694 98.6494085 103.725934 103.067318 99.3084729 95.9719522 92.2131074 103.033735 85.1513241 98.5948192 80.7128539 91.533482 87.7741912 84.4381176 80.6792728 80.0206556 85.0967348 87.115574 92.1920992 80.0542378 99.2538836"></polygon>
                <polygon id="Fill-14" transform="translate(143.002633, 40.987510) rotate(-45.000000) translate(-143.002633, -40.987510) " points="142.992353 36.5592351 135.897126 29.4641796 131.479302 33.8812796 138.574083 40.9767812 131.512885 48.0387034 135.951715 52.4772594 143.013361 45.4153382 150.108142 52.5108399 154.525965 48.0932927 147.430736 40.99779 154.492382 33.9358689 150.053552 29.49776"></polygon>
                <polygon id="Fill-15" transform="translate(41.859776, 140.768642) rotate(-45.000000) translate(-41.859776, -140.768642) " points="41.8494959 136.340367 34.7542687 129.245312 30.3364448 133.662412 37.4312259 140.757913 30.3700276 147.819836 34.808858 152.258392 41.8705034 145.19647 48.9652846 152.291972 53.3831074 147.874425 46.2878792 140.778922 53.3495246 133.717001 48.9106953 129.278892"></polygon>
                <polygon id="Fill-16" transform="translate(143.002634, 92.202603) rotate(-45.000000) translate(-143.002634, -92.202603) " points="135.951353 103.692352 143.013138 96.6310161 150.108055 103.725933 154.525964 99.3084725 147.430599 92.213107 154.492383 85.1517708 150.053466 80.7128535 142.992128 87.7741908 135.896764 80.6792724 131.479303 85.0971815 138.57422 92.1920988 131.512884 99.2538832"></polygon>
                <polygon id="Fill-17" transform="translate(94.205641, 140.768642) rotate(-45.000000) translate(-94.205641, -140.768642) " points="101.256921 129.278893 94.1951367 136.340229 87.0997722 129.245311 82.6823103 133.662773 89.7776747 140.757691 82.7158914 147.819474 87.1543615 152.258391 94.2161459 145.197054 101.31151 152.291973 105.728971 147.874064 98.6340529 140.778699 105.69539 133.717362"></polygon>
                <polygon id="Fill-18" transform="translate(119.934964, 115.161095) rotate(-45.000000) translate(-119.934964, -115.161095) " points="126.986245 103.671346 119.92446 110.732682 112.829543 103.637765 108.411634 108.055225 115.506998 115.150144 108.445215 122.211927 112.884132 126.650844 119.94547 119.589507 127.040834 126.684425 131.458295 122.266516 124.363377 115.171152 131.424714 108.109815"></polygon>
                <polygon id="Fill-19" transform="translate(168.731957, 66.595057) rotate(-45.000000) translate(-168.731957, -66.595057) " points="168.721676 62.1667819 161.626449 55.0717264 157.208626 59.4892735 164.303406 66.584328 157.242208 73.6462502 161.681038 78.0848062 168.742685 71.0233322 175.837465 78.1183867 180.255288 73.7008395 173.160059 66.6053368 180.221706 59.5438628 175.782876 55.1053068"></polygon>
                <polygon id="Fill-20" transform="translate(67.589100, 166.376189) rotate(-45.000000) translate(-67.589100, -166.376189) " points="67.578819 161.947914 60.4835918 154.852858 56.065769 159.270406 63.1605491 166.36546 56.0993507 173.427382 60.5381811 177.865938 67.5998276 170.804464 74.6946077 177.899519 79.1124306 173.481972 72.0172023 166.386469 79.0788488 159.324995 74.6400184 154.886439"></polygon>
                <polygon id="Fill-21" transform="translate(168.731957, 117.810150) rotate(-45.000000) translate(-168.731957, -117.810150) " points="161.680676 129.299899 168.742461 122.2387 175.837378 129.33348 180.255287 124.916105 173.159922 117.820877 180.221707 110.759679 175.782789 106.3204 168.721452 113.382047 161.626087 106.286819 157.208627 110.705089 164.303544 117.799869 157.242208 124.861516"></polygon>
                <polygon id="Fill-22" transform="translate(119.934964, 166.376189) rotate(-45.000000) translate(-119.934964, -166.376189) " points="126.986244 154.88644 119.924461 161.948086 112.829095 154.852858 108.411634 159.270681 115.506998 166.365461 108.445215 173.427107 112.883685 177.865937 119.945469 170.804739 127.040833 177.89952 131.458295 173.481697 124.363377 166.38647 131.424714 159.32527"></polygon>
                <polygon id="Fill-23" transform="translate(145.664288, 140.768642) rotate(-45.000000) translate(-145.664288, -140.768642) " points="152.715568 129.278892 145.653784 136.340538 138.558866 129.245311 134.140958 133.663133 141.236322 140.757914 134.174538 147.81956 138.613456 152.258391 145.674793 145.197191 152.770157 152.291972 157.187618 147.874149 150.0927 140.778922 157.154038 133.717723"></polygon>
                <polygon id="Fill-24" transform="translate(194.461281, 92.202603) rotate(-45.000000) translate(-194.461281, -92.202603) " points="194.451 87.7745004 187.355772 80.6792728 182.937951 85.0975421 190.03273 92.1923215 182.971531 99.2539687 187.410361 103.692353 194.472008 96.6311536 201.566788 103.725933 205.984611 99.308558 198.889384 92.2133304 205.951031 85.1521314 201.512199 80.7128532"></polygon>
                <polygon id="Fill-25" transform="translate(93.318424, 191.983735) rotate(-45.000000) translate(-93.318424, -191.983735) " points="93.3081424 187.555632 86.2129148 180.460405 81.7950937 184.878674 88.8898731 191.973454 81.8286741 199.035101 86.2675041 203.473485 93.3291513 196.412286 100.423931 203.507065 104.841754 199.08969 97.7465264 191.994462 104.808174 184.933263 100.369341 180.493985"></polygon>
            </g>
        </g>
    </g>
</svg>