<?xml version="1.0" encoding="UTF-8"?>
<svg width="199px" height="200px" viewBox="0 0 199 200" version="1.1" xmlns="http://www.w3.org/2000/svg" xmlns:xlink="http://www.w3.org/1999/xlink">
    <!-- Generator: Sketch 55 (78076) - https://sketchapp.com -->
    <title>Group 26</title>
    <desc>Created with Sketch.</desc>
    <g id="Page-1" stroke="none" stroke-width="1" fill="none" fill-rule="evenodd">
        <g id="DanceFight-Desktop-1A" transform="translate(-212.000000, -890.000000)" fill="#FFFFFF">
            <g id="Group-26" transform="translate(311.237590, 990.237590) rotate(45.000000) translate(-311.237590, -990.237590) translate(238.737590, 916.737590)">
                <polygon id="Fill-1" points="108.735127 0.952272785 102.583261 7.10369336 96.431395 0.952272785 92.5832611 4.80053045 98.7351273 10.951951 92.5832611 17.1040151 96.431395 20.9522728 102.583261 14.8008522 108.735127 20.9522728 112.583261 17.1040151 106.431395 10.951951 112.583261 4.80053045"></polygon>
                <polygon id="Fill-2" points="47.9238203 0.952272785 41.7717562 7.10369336 35.6203356 0.952272785 31.7720779 4.80053045 37.924142 10.951951 31.7720779 17.1040151 35.6203356 20.9522728 41.7717562 14.8008522 47.9238203 20.9522728 51.7720779 17.1040151 45.6206574 10.951951 51.7720779 4.80053045"></polygon>
                <polygon id="Fill-3" points="77.6221813 0.952272785 71.4705627 7.10369336 65.3189442 0.952272785 61.4705627 4.80053045 67.6221813 10.951951 61.4705627 17.1040151 65.3189442 20.9522728 71.4705627 14.8008522 77.6221813 20.9522728 81.4705627 17.1040151 75.3195878 10.951951 81.4705627 4.80053045"></polygon>
                <polygon id="Fill-4" points="139.847702 0.952272785 133.695638 7.10369336 127.543574 0.952272785 123.695959 4.80053045 129.84738 10.951951 123.695959 17.1040151 127.543574 20.9522728 133.695638 14.8008522 139.847702 20.9522728 143.695959 17.1040151 137.544539 10.951951 143.695959 4.80053045"></polygon>
                <polygon id="Fill-5" points="16.8109981 0.952272785 10.658736 7.10369336 4.50776106 0.952272785 0.659379566 4.80053045 6.81099807 10.951951 0.659379566 17.1040151 4.50776106 20.9522728 10.658736 14.8008522 16.8109981 20.9522728 20.6593796 17.1040151 14.5077611 10.951951 20.6593796 4.80053045"></polygon>
                <polygon id="Fill-6" points="103.29069 132.261594 97.1382297 126.110173 93.2903679 129.958431 99.4421844 136.109851 93.2903679 142.261915 97.1375861 146.110173 97.1388732 146.110173 103.29069 139.958752 109.441863 146.110173 109.44315 146.110173 113.290368 142.261915 107.139195 136.109851 113.290368 129.958431 109.442506 126.110173"></polygon>
                <polygon id="Fill-7" points="41.0649712 132.261594 34.9127091 126.110173 31.0649712 129.958431 37.2165897 136.109851 31.0649712 142.261915 34.9120656 146.110173 34.9133526 146.110173 41.0649712 139.958752 47.2159461 146.110173 47.2172332 146.110173 51.0649712 142.261915 44.9139962 136.109851 51.0649712 129.958431 47.2165897 126.110173"></polygon>
                <polygon id="Fill-8" points="73.5922049 132.261594 67.4397449 126.110173 63.5918831 129.958431 69.7436995 136.109851 63.5918831 142.261915 67.4391013 146.110173 67.4403884 146.110173 73.5922049 139.958752 79.7433778 146.110173 79.7446649 146.110173 83.5918831 142.261915 77.4407102 136.109851 83.5918831 129.958431 79.7440213 126.110173"></polygon>
                <polygon id="Fill-9" points="134.403066 132.261594 128.250804 126.110173 124.403066 129.958431 130.554685 136.109851 124.403066 142.261915 128.250161 146.110173 128.251448 146.110173 134.403066 139.958752 140.554685 146.110173 140.555972 146.110173 144.403066 142.261915 138.251448 136.109851 144.403066 129.958431 140.555328 126.110173"></polygon>
                <polygon id="Fill-10" points="11.3658428 132.261594 5.21486784 126.110173 1.36648635 129.958431 7.51746131 136.109851 1.36648635 142.261915 5.2142243 146.110173 5.21551138 146.110173 11.3658428 139.958752 17.5174613 146.110173 17.5187484 146.110173 21.3664863 142.261915 15.2142243 136.109851 21.3664863 129.958431 17.5181049 126.110173"></polygon>
                <polygon id="Fill-11" points="95.724412 51.3578644 101.876476 45.2062459 108.027897 51.3578644 111.876154 47.5094829 105.72409 41.3578644 111.876154 35.2056023 108.027897 31.3578644 101.876476 37.5088393 95.724412 31.3578644 91.8761543 35.2056023 98.0275749 41.3578644 91.8761543 47.5094829"></polygon>
                <polygon id="Fill-12" points="47.2167135 31.3578644 41.0646494 37.5094829 34.9138723 31.3578644 31.0649712 35.2056023 37.2170353 41.3578644 31.0649712 47.5094829 34.9138723 51.3578644 41.0646494 45.2068894 47.2167135 51.3578644 51.0649712 47.5094829 44.9135506 41.3578644 51.0649712 35.2056023"></polygon>
                <polygon id="Fill-13" points="66.0259272 51.3578644 72.1773478 45.2062459 78.3287683 51.3578644 82.1776695 47.5094829 76.0256054 41.3578644 82.1776695 35.2056023 78.3287683 31.3578644 72.1773478 37.5088393 66.0259272 31.3578644 62.1776695 35.2056023 68.3290901 41.3578644 62.1776695 47.5094829"></polygon>
                <polygon id="Fill-14" points="134.403066 37.5094829 128.250804 31.3578644 124.403066 35.2062459 130.554685 41.3578644 124.403066 47.5088393 128.250804 51.3578644 134.403066 45.2068894 140.555328 51.3578644 144.403066 47.5088393 138.251448 41.3578644 144.403066 35.2062459 140.555328 31.3578644"></polygon>
                <polygon id="Fill-15" points="11.3658428 37.5094829 5.21486784 31.3578644 1.36648635 35.2062459 7.51746131 41.3578644 1.36648635 47.5088393 5.21486784 51.3578644 11.3658428 45.2068894 17.5181049 51.3578644 21.3664863 47.5088393 15.2142243 41.3578644 21.3664863 35.2062459 17.5181049 31.3578644"></polygon>
                <polygon id="Fill-16" points="95.724412 83.8847763 101.876476 77.7327122 108.027897 83.8847763 111.876154 80.0365186 105.72409 73.8844546 111.876154 67.7323905 108.027897 63.8847763 101.876476 70.0355534 95.724412 63.8847763 91.8761543 67.7323905 98.0275749 73.8844546 91.8761543 80.0365186"></polygon>
                <polygon id="Fill-17" points="47.2167135 63.8847763 41.0646494 70.0361969 34.9138723 63.8847763 31.0649712 67.7323905 37.2170353 73.8844546 31.0649712 80.0365186 34.9138723 83.8847763 41.0646494 77.7333557 47.2167135 83.8847763 51.0649712 80.0365186 44.9135506 73.8844546 51.0649712 67.7323905"></polygon>
                <polygon id="Fill-18" points="80.0305525 62.6965974 73.5859631 69.1403029 67.1231225 62.6776695 63.0918831 66.7081028 69.5547247 73.1714113 63.1108114 79.6157928 67.1538898 83.6587416 73.5978041 77.2150352 80.0613198 83.6776695 84.0918831 79.6465602 77.6297166 73.1832527 84.0729548 66.7388701"></polygon>
                <polygon id="Fill-19" points="133.695959 69.3288922 127.543697 63.1776695 123.695959 67.0258034 129.847578 73.177026 123.695959 79.3288922 127.543697 83.1776695 133.695959 77.0258034 139.848222 83.1776695 143.695959 79.3288922 137.544341 73.177026 143.695959 67.0258034 139.848222 63.1776695"></polygon>
                <polygon id="Fill-20" points="10.658736 69.3288922 4.50776106 63.1776695 0.659379566 67.0258034 6.81035453 73.177026 0.659379566 79.3288922 4.50776106 83.1776695 10.658736 77.0258034 16.8109981 83.1776695 20.6593796 79.3288922 14.5071175 73.177026 20.6593796 67.0258034 16.8109981 63.1776695"></polygon>
                <polygon id="Fill-21" points="96.4315188 115.704581 102.583583 109.552517 108.735003 115.704581 112.583261 111.856967 106.431197 105.704903 112.583261 99.5528391 108.735003 95.7045815 102.583583 101.856002 96.4315188 95.7045815 92.5832611 99.5528391 98.7346817 105.704903 92.5832611 111.856967"></polygon>
                <polygon id="Fill-22" points="47.9238203 95.7045815 41.7717562 101.856646 35.6209791 95.7045815 31.7720779 99.5528391 37.924142 105.704903 31.7720779 111.856967 35.6209791 115.704581 41.7717562 109.553161 47.9238203 115.704581 51.7720779 111.856967 45.6206574 105.704903 51.7720779 99.5528391"></polygon>
                <polygon id="Fill-23" points="79.0370384 95.7045815 72.8847763 101.856646 66.7331578 95.7045815 62.8847763 99.5528391 69.0363948 105.704903 62.8847763 111.856967 66.7331578 115.704581 72.8847763 109.553161 79.0370384 115.704581 82.8847763 111.856967 76.7338013 105.704903 82.8847763 99.5528391"></polygon>
                <polygon id="Fill-24" points="133.695959 101.856646 127.543697 95.7045815 123.695959 99.5534827 129.847578 105.704903 123.695959 111.856324 127.543697 115.704581 133.695959 109.553161 139.848222 115.704581 143.695959 111.856324 137.544341 105.704903 143.695959 99.5534827 139.848222 95.7045815"></polygon>
                <polygon id="Fill-25" points="10.658736 101.856646 4.50776106 95.7045815 0.659379566 99.5534827 6.81035453 105.704903 0.659379566 111.856324 4.50776106 115.704581 10.658736 109.553161 16.8109981 115.704581 20.6593796 111.856324 14.5071175 105.704903 20.6593796 99.5534827 16.8109981 95.7045815"></polygon>
            </g>
        </g>
    </g>
</svg>