<?xml version="1.0" encoding="utf-8"?>
<!-- Generator: Adobe Illustrator 23.0.3, SVG Export Plug-In . SVG Version: 6.00 Build 0)  -->
<svg version="1.1" id="Layer_1" xmlns="http://www.w3.org/2000/svg" xmlns:xlink="http://www.w3.org/1999/xlink" x="0px" y="0px"
	 viewBox="0 0 99 100" style="enable-background:new 0 0 99 100;" xml:space="preserve">
<style type="text/css">
	.st0{fill-rule:evenodd;clip-rule:evenodd;fill:#F8FB04;}
</style>
<title>Group 26</title>
<desc>Created with Sketch.</desc>
<g id="Page-1">
	<g id="DanceFight-Desktop-1A" transform="translate(-828.000000, -248.000000)">
		<g id="Group-26" transform="translate(828.000000, 248.000000)">
			<polygon id="Fill-1" class="st0" points="74.3,0 70,4.3 65.7,0 63,2.7 67.3,7 63,11.3 65.7,14 70,9.7 74.3,14 77,11.3 72.7,7 
				77,2.7 			"/>
			<polygon id="Fill-2" class="st0" points="32.3,0 28,4.3 23.7,0 21,2.7 25.3,7 21,11.3 23.7,14 28,9.7 32.3,14 35,11.3 30.7,7 
				35,2.7 			"/>
			<polygon id="Fill-3" class="st0" points="53.3,0 49,4.3 44.7,0 42,2.7 46.3,7 42,11.3 44.7,14 49,9.7 53.3,14 56,11.3 51.7,7 
				56,2.7 			"/>
			<polygon id="Fill-4" class="st0" points="96.3,0 92,4.3 87.7,0 85,2.7 89.3,7 85,11.3 87.7,14 92,9.7 96.3,14 99,11.3 94.7,7 
				99,2.7 			"/>
			<polygon id="Fill-5" class="st0" points="11.3,0 7,4.3 2.7,0 0,2.7 4.3,7 0,11.3 2.7,14 7,9.7 11.3,14 14,11.3 9.7,7 14,2.7 			
				"/>
			<polygon id="Fill-6" class="st0" points="71,90.3 66.7,86 64,88.7 68.3,93 64,97.3 66.7,100 66.7,100 71,95.7 75.3,100 75.3,100 
				78,97.3 73.7,93 78,88.7 75.3,86 			"/>
			<polygon id="Fill-7" class="st0" points="28,90.3 23.7,86 21,88.7 25.3,93 21,97.3 23.7,100 23.7,100 28,95.7 32.3,100 32.3,100 
				35,97.3 30.7,93 35,88.7 32.3,86 			"/>
			<polygon id="Fill-8" class="st0" points="50,90.3 45.7,86 43,88.7 47.3,93 43,97.3 45.7,100 45.7,100 50,95.7 54.3,100 54.3,100 
				57,97.3 52.7,93 57,88.7 54.3,86 			"/>
			<polygon id="Fill-9" class="st0" points="92,90.3 87.7,86 85,88.7 89.3,93 85,97.3 87.7,100 87.7,100 92,95.7 96.3,100 96.3,100 
				99,97.3 94.7,93 99,88.7 96.3,86 			"/>
			<polygon id="Fill-10" class="st0" points="7,90.3 2.7,86 0,88.7 4.3,93 0,97.3 2.7,100 2.7,100 7,95.7 11.3,100 11.3,100 
				14,97.3 9.7,93 14,88.7 11.3,86 			"/>
			<polygon id="Fill-11" class="st0" points="65.7,35 70,30.7 74.3,35 77,32.3 72.7,28 77,23.7 74.3,21 70,25.3 65.7,21 63,23.7 
				67.3,28 63,32.3 			"/>
			<polygon id="Fill-12" class="st0" points="32.3,21 28,25.3 23.7,21 21,23.7 25.3,28 21,32.3 23.7,35 28,30.7 32.3,35 35,32.3 
				30.7,28 35,23.7 			"/>
			<polygon id="Fill-13" class="st0" points="44.7,35 49,30.7 53.3,35 56,32.3 51.7,28 56,23.7 53.3,21 49,25.3 44.7,21 42,23.7 
				46.3,28 42,32.3 			"/>
			<polygon id="Fill-14" class="st0" points="92,25.3 87.7,21 85,23.7 89.3,28 85,32.3 87.7,35 92,30.7 96.3,35 99,32.3 94.7,28 
				99,23.7 96.3,21 			"/>
			<polygon id="Fill-15" class="st0" points="7,25.3 2.7,21 0,23.7 4.3,28 0,32.3 2.7,35 7,30.7 11.3,35 14,32.3 9.7,28 14,23.7 
				11.3,21 			"/>
			<polygon id="Fill-16" class="st0" points="65.7,57 70,52.7 74.3,57 77,54.3 72.7,50 77,45.7 74.3,43 70,47.3 65.7,43 63,45.7 
				67.3,50 63,54.3 			"/>
			<polygon id="Fill-17" class="st0" points="32.3,43 28,47.3 23.7,43 21,45.7 25.3,50 21,54.3 23.7,57 28,52.7 32.3,57 35,54.3 
				30.7,50 35,45.7 			"/>
			<polygon id="Fill-18" class="st0" points="54.6,42.6 50.2,46.9 45.8,42.6 43.1,45.3 47.5,49.6 43.1,54 45.9,56.7 50.2,52.4 
				54.6,56.7 57.3,54 52.9,49.6 57.3,45.3 			"/>
			<polygon id="Fill-19" class="st0" points="92,47.3 87.7,43 85,45.7 89.3,50 85,54.3 87.7,57 92,52.7 96.3,57 99,54.3 94.7,50 
				99,45.7 96.3,43 			"/>
			<polygon id="Fill-20" class="st0" points="7,47.3 2.7,43 0,45.7 4.3,50 0,54.3 2.7,57 7,52.7 11.3,57 14,54.3 9.7,50 14,45.7 
				11.3,43 			"/>
			<polygon id="Fill-21" class="st0" points="65.7,79 70,74.7 74.3,79 77,76.3 72.7,72 77,67.7 74.3,65 70,69.3 65.7,65 63,67.7 
				67.3,72 63,76.3 			"/>
			<polygon id="Fill-22" class="st0" points="32.3,65 28,69.3 23.7,65 21,67.7 25.3,72 21,76.3 23.7,79 28,74.7 32.3,79 35,76.3 
				30.7,72 35,67.7 			"/>
			<polygon id="Fill-23" class="st0" points="54.3,65 50,69.3 45.7,65 43,67.7 47.3,72 43,76.3 45.7,79 50,74.7 54.3,79 57,76.3 
				52.7,72 57,67.7 			"/>
			<polygon id="Fill-24" class="st0" points="92,69.3 87.7,65 85,67.7 89.3,72 85,76.3 87.7,79 92,74.7 96.3,79 99,76.3 94.7,72 
				99,67.7 96.3,65 			"/>
			<polygon id="Fill-25" class="st0" points="7,69.3 2.7,65 0,67.7 4.3,72 0,76.3 2.7,79 7,74.7 11.3,79 14,76.3 9.7,72 14,67.7 
				11.3,65 			"/>
		</g>
	</g>
</g>
</svg>
