<?xml version="1.0" encoding="utf-8"?>
<!-- Generator: Adobe Illustrator 23.0.3, SVG Export Plug-In . SVG Version: 6.00 Build 0)  -->
<svg version="1.1" id="Layer_1" xmlns="http://www.w3.org/2000/svg" xmlns:xlink="http://www.w3.org/1999/xlink" x="0px" y="0px"
	 viewBox="0 0 68 64" style="enable-background:new 0 0 68 64;" xml:space="preserve">
<style type="text/css">
	.st0{fill-rule:evenodd;clip-rule:evenodd;fill:#F8FB04;}
</style>
<title>Group 2</title>
<desc>Created with Sketch.</desc>
<g id="Page-1">
	<g id="DanceFight-Desktop-1A" transform="translate(-348.000000, -196.000000)">
		
			<g id="Group-13" transform="translate(380.286788, 224.409576) rotate(-35.000000) translate(-380.286788, -224.409576) translate(346.286788, 196.909576)">
			<g id="Group-2" transform="translate(4.480175, 4.615386)">
				<polygon id="Fill-1" class="st0" points="5.5,49.4 53.5,49.4 53.5,41.4 5.5,41.4 				"/>
				<path id="Fill-10" class="st0" d="M35.1,29.1l-7.8-4.9c-0.9-0.6-1.6-1.5-1.8-2.6c-0.3-1.1-0.1-2.2,0.5-3.2
					c0.6-1,1.5-1.6,2.5-1.9c1.1-0.3,2.2-0.1,3.1,0.5l-1.3,2.2c-0.7-0.5-1.7-0.2-2.1,0.5c-0.4,0.7-0.2,1.7,0.5,2.2l7.8,4.9L35.1,29.1
					z M32.9,33.4c-0.6,1-1.5,1.6-2.5,1.9c-1.1,0.3-2.2,0.1-3.1-0.5c-0.9-0.6-1.6-1.5-1.8-2.6c-0.3-1.1-0.1-2.2,0.5-3.2l0.6-1
					l2.2,1.4l-0.6,1c-0.4,0.7-0.2,1.7,0.5,2.2c0.7,0.5,1.7,0.2,2.1-0.5c0.4-0.7,0.2-1.7-0.5-2.2L22.4,25l1.3-2.2l7.8,4.9
					c0.9,0.6,1.6,1.5,1.8,2.6C33.7,31.3,33.5,32.4,32.9,33.4L32.9,33.4z M33.9,20.9l-1.7,2.8L30,22.3l1.7-2.8L33.9,20.9z M40.3,22.4
					L29.4,0v0l0,0l0,0v0L18.5,22.4L0,9.5l5.7,28.7l23.7,0h0l23.7,0l5.7-28.7L40.3,22.4z"/>
			</g>
		</g>
	</g>
</g>
</svg>
