<svg data-name="Dance Fight logo" id="svg-logo" class="d-none" xmlns="http://www.w3.org/2000/svg" height="0" width="0" viewBox="0 0 541.34 721.34"><title>Dance Fight logo</title><defs><clipPath id="video-clip-path" clipPathUnits="objectBoundingBox" transform="scale(0.001848, 0.00138)" stroke-linecap="round" fill-rule="evenodd" font-size="9pt" stroke="#000" stroke-width="0.25mm" fill="none" style="stroke:#000;stroke-width:0.25mm;fill:none"><path d="M429.56,548.18c3.15,36-5.29,69.17-24.58,99.36-23.94,37.48-58.19,61-101.67,70.15-38,8-74.69,2.9-108.78-16.16-38.62-21.59-64.43-53.69-76.89-96.35a157.34,157.34,0,0,1-5.83-53.58c1.1-19,5-37.53,13.74-54.47,8.4-16.32,18.22-31.91,27.42-47.82,0.4-.68.87-1.32,1.28-2,4.19-7,2.81-6.11,9.36-2.12,25.34,15.45,50.59,31,75.93,46.52,2.54,1.55,3.18,2.85,1.46,5.61-7.6,12.15-15.26,24.28-22.38,36.71-4.84,8.44-6.67,17.77-6.72,27.63a56.88,56.88,0,0,0,12.31,36.47c10.39,13.24,24.06,20.66,40.91,22.59,7.83,0.9,15.22-1,22.81-1.73,4.26-.44,7.18-3.06,10.6-4.83a62.62,62.62,0,0,0,10.2-6.75c27.14-21.68,28.16-64,4.46-87.51C308,514.77,302,511.22,296,507.53Q229.77,466.67,163.32,426q-45.73-28.07-91.48-56.11-34.18-21-68.32-42.08c-1.15-.71-2.37-1.3-3.56-2v-1.35l0,0c4.12-6.45,8.32-12.85,12.32-19.37q19-30.84,37.86-61.74c1.47-2.42,2.61-2.65,5-1.16Q105,273,154.94,303.64q42.85,26.3,85.74,52.53c20.64,12.59,41.11,25.34,61.64,38,19,11.72,38.23,23.15,57,35.19,23,14.74,40.48,34.83,53,59A158.56,158.56,0,0,1,429.56,548.18Zm110-154.52q-48-29.57-96-59.07-47.36-28.94-94.66-58-53.32-32.86-106.68-65.65c-21-12.92-31.38-31.5-30.11-56.31a55,55,0,0,1,6.4-23,59.26,59.26,0,0,1,79.36-25.38c4.67,2.34,4.69,2.35,7.49-2.26q23.25-38.34,46.62-76.6c2.41-4,3.12-3.54-1.82-6.4a159.36,159.36,0,0,0-49.6-18.38c-4.86-1-9.75-1.74-14.62-2.61H256.77a13.92,13.92,0,0,1-2.25.65,165.3,165.3,0,0,0-47,12.47,153.52,153.52,0,0,0-58.09,43.22,161.81,161.81,0,0,0-28,48.73c-8.25,22.89-11.47,46.38-8.82,70.53a158.9,158.9,0,0,0,18.72,60c10.6,19.16,24,36.15,41.86,49,13.43,9.68,27.73,18.19,41.82,26.92q49.42,30.47,98.9,60.85,38.28,23.42,76.44,46.9,48.09,29.44,96,59.14c2.86,1.77,4.07,1.29,5.72-1.42q24.12-39.61,48.42-79.11C541.77,395.91,541.58,394.92,539.52,393.66Zm-245.6-174c-1.39,2.27-1.53,3.6,1.15,5,3.67,1.93,7.11,4.36,10.67,6.54q34.38,21,68.66,42.12c2.32,1.43,3.44,1,4.78-1.22l58.23-94.9c1.63-2.59,3-5.29,4.63-8.19a10.46,10.46,0,0,0-1.54-1.58c-2.24-1.51-4.5-3-6.8-4.41q-36.62-22.51-73.15-45.16c-2.45-1.59-3.59-.91-5,1.41q-18.64,30.46-37.33,60.89C310.13,193.3,302.07,206.5,293.92,219.63Z" transform="translate(0.04 0.01)"></path></clipPath></defs></svg>
